<svg xmlns="http://www.w3.org/2000/svg" width="320" height="64" viewBox="0 0 320 64" role="img" aria-labelledby="title desc">
  <title id="title">FormaOS Wordmark (Light)</title>
  <desc id="desc">Logo with mark and dark text for light backgrounds</desc>
  <defs>
    <linearGradient id="g" x1="0" y1="0" x2="1" y2="1">
      <stop offset="0%" stop-color="#4f46e5"/>
      <stop offset="100%" stop-color="#0ea5e9"/>
    </linearGradient>
  </defs>
  <rect width="320" height="64" fill="none"/>
  <g transform="translate(4,4)">
    <rect x="0" y="0" width="56" height="56" rx="12" fill="url(#g)"/>
    <g fill="#ffffff">
      <path d="M12 12h32a6 6 0 0 1 0 12H12a6 6 0 0 1 0-12z"/>
      <path d="M12 34h22a6 6 0 0 1 0 12H12a6 6 0 0 1 0-12z"/>
      <circle cx="42" cy="46" r="6"/>
    </g>
  </g>
  <g transform="translate(72,44)" fill="#0f172a">
    <path d="M0-20h22v6H6v6h14v6H6v8H0z"/>
    <path d="M32.5-20c8.6 0 14.5 5.8 14.5 14.2C47 2.7 41.1 8 32.5 8c-8.7 0-14.5-5.7-14.5-13.8C18-14.2 23.8-20 32.5-20zm0 6c-4.8 0-8 3.3-8 8 0 4.5 3.2 7.8 8 7.8 4.8 0 8-3.3 8-7.8 0-4.7-3.2-8-8-8z"/>
    <path d="M68-20c4.3 0 7.6 1.7 9.8 4.6l-4.6 3.8c-1.3-1.6-3-2.5-5.1-2.5-3.8 0-6.5 3.2-6.5 7.8 0 4.6 2.7 7.8 6.5 7.8 2.1 0 3.8-.9 5.1-2.5l4.6 3.8C75.6 6.3 72.3 8 68 8c-7.9 0-13.5-5.6-13.5-13.8C54.5-14.2 60.1-20 68-20z"/>
    <path d="M90-20h6v9.5h12V-20h6V8h-6V-5.5H96V8h-6z"/>
    <path d="M141-20c8 0 13 4.6 13 12.2V8h-6v-3.4c-1.7 2.4-4.8 3.8-8.7 3.8-6.6 0-11-3.6-11-8.8 0-4.9 3.4-8 10.3-8H148v-1c0-3.7-2.6-6-7-6-3.1 0-5.7 1.1-8 3l-3.1-4.6c3-2.8 7.2-4.4 11.1-4.4zm6.9 16.3h-8.6c-3 0-4.5 1.2-4.5 3.2 0 2.1 1.9 3.5 5 3.5 4.5 0 8.1-2.4 8.1-6.7z"/>
  </g>
</svg>
