<svg xmlns="http://www.w3.org/2000/svg" width="512" height="512" viewBox="0 0 512 512" fill="none">
  <defs>
    <linearGradient id="tile-bg" x1="92" y1="72" x2="432" y2="440" gradientUnits="userSpaceOnUse">
      <stop offset="0" stop-color="#081019"/>
      <stop offset="1" stop-color="#12263b"/>
    </linearGradient>
    <linearGradient id="tile-edge" x1="106" y1="88" x2="412" y2="420" gradientUnits="userSpaceOnUse">
      <stop offset="0" stop-color="#7cf0ff"/>
      <stop offset="0.46" stop-color="#39c2ff"/>
      <stop offset="1" stop-color="#118bff"/>
    </linearGradient>
    <linearGradient id="tile-core" x1="154" y1="142" x2="324" y2="324" gradientUnits="userSpaceOnUse">
      <stop offset="0" stop-color="#edfcff"/>
      <stop offset="0.54" stop-color="#96ebff"/>
      <stop offset="1" stop-color="#41c1ff"/>
    </linearGradient>
    <linearGradient id="tile-ring" x1="268" y1="152" x2="364" y2="292" gradientUnits="userSpaceOnUse">
      <stop offset="0" stop-color="#d6fbff"/>
      <stop offset="1" stop-color="#32b6ff"/>
    </linearGradient>
    <filter id="tile-glow" x="-20%" y="-20%" width="140%" height="140%">
      <feGaussianBlur stdDeviation="16" result="blur"/>
      <feColorMatrix in="blur" type="matrix" values="1 0 0 0 0.08 0 1 0 0 0.74 0 0 1 0 1 0 0 0 0.32 0"/>
    </filter>
  </defs>

  <rect x="56" y="56" width="400" height="400" rx="112" fill="url(#tile-bg)"/>
  <rect x="56" y="56" width="400" height="400" rx="112" stroke="url(#tile-edge)" stroke-width="10"/>
  <rect x="94" y="94" width="324" height="324" rx="84" stroke="rgba(133, 233, 255, 0.16)" stroke-width="4"/>

  <rect x="160" y="154" width="34" height="204" rx="17" fill="url(#tile-core)" filter="url(#tile-glow)"/>
  <rect x="160" y="154" width="150" height="34" rx="17" fill="url(#tile-core)"/>
  <rect x="160" y="238" width="124" height="30" rx="15" fill="url(#tile-core)"/>
  <rect x="206" y="248" width="62" height="10" rx="5" fill="#0a2539" opacity="0.2"/>

  <path d="M218 315L286 279" stroke="#48d0ff" stroke-width="9" stroke-linecap="round" opacity="0.55"/>

  <path
    d="M319 153C373.124 153 417 196.876 417 251C417 305.124 373.124 349 319 349C264.876 349 221 305.124 221 251C221 196.876 264.876 153 319 153ZM319 190C285.31 190 258 217.31 258 251C258 284.69 285.31 312 319 312C352.69 312 380 284.69 380 251C380 217.31 352.69 190 319 190Z"
    fill="url(#tile-ring)"
  />

  <circle cx="319" cy="251" r="34" fill="#0d1a2c"/>
  <circle cx="319" cy="251" r="14" fill="#1f618d" opacity="0.48"/>
</svg>
