<svg xmlns="http://www.w3.org/2000/svg" width="512" height="512" viewBox="0 0 512 512" fill="none">
  <defs>
    <linearGradient id="knot-bg" x1="84" y1="78" x2="430" y2="432" gradientUnits="userSpaceOnUse">
      <stop offset="0" stop-color="#0c1220"/>
      <stop offset="1" stop-color="#15263a"/>
    </linearGradient>
    <linearGradient id="knot-frame" x1="128" y1="104" x2="394" y2="406" gradientUnits="userSpaceOnUse">
      <stop offset="0" stop-color="#ffe58a"/>
      <stop offset="0.42" stop-color="#ffb84a"/>
      <stop offset="1" stop-color="#ff7f32"/>
    </linearGradient>
    <linearGradient id="knot-ribbon" x1="148" y1="146" x2="338" y2="344" gradientUnits="userSpaceOnUse">
      <stop offset="0" stop-color="#fff2b9"/>
      <stop offset="0.5" stop-color="#ffc96b"/>
      <stop offset="1" stop-color="#ff974f"/>
    </linearGradient>
    <linearGradient id="knot-ribbon-cool" x1="222" y1="176" x2="386" y2="336" gradientUnits="userSpaceOnUse">
      <stop offset="0" stop-color="#e4fbff"/>
      <stop offset="1" stop-color="#54c8ff"/>
    </linearGradient>
    <filter id="knot-glow" x="-20%" y="-20%" width="140%" height="140%">
      <feGaussianBlur stdDeviation="18" result="blur"/>
      <feColorMatrix in="blur" type="matrix" values="1 0 0 0 1 0 1 0 0 0.66 0 0 1 0 0.25 0 0 0 0.22 0"/>
    </filter>
  </defs>

  <rect x="56" y="56" width="400" height="400" rx="110" fill="url(#knot-bg)"/>
  <rect x="56" y="56" width="400" height="400" rx="110" stroke="rgba(255, 201, 107, 0.26)" stroke-width="8"/>

  <path
    d="M171 143C171 129.745 181.745 119 195 119H321C334.255 119 345 129.745 345 143V165C345 178.255 334.255 189 321 189H220V235H305C318.255 235 329 245.745 329 259V279C329 292.255 318.255 303 305 303H220V369C220 382.255 209.255 393 196 393H173C159.745 393 149 382.255 149 369V167C149 153.745 159.745 143 173 143H171Z"
    fill="url(#knot-ribbon)"
    filter="url(#knot-glow)"
  />

  <path
    d="M312 150C367.228 150 412 194.772 412 250C412 305.228 367.228 350 312 350C256.772 350 212 305.228 212 250C212 194.772 256.772 150 312 150ZM312 188C277.758 188 250 215.758 250 250C250 284.242 277.758 312 312 312C346.242 312 374 284.242 374 250C374 215.758 346.242 188 312 188Z"
    fill="url(#knot-ribbon-cool)"
  />

  <path d="M228 304L294 269" stroke="#ffbe52" stroke-width="10" stroke-linecap="round" opacity="0.58"/>
  <path d="M168 145H216V391H168C157.507 391 149 382.493 149 372V164C149 153.507 157.507 145 168 145Z" fill="#fff7d7" opacity="0.16"/>
  <circle cx="312" cy="250" r="26" fill="#0f1927"/>
  <circle cx="312" cy="250" r="10" fill="#ffb44a" opacity="0.4"/>
</svg>
