<svg xmlns="http://www.w3.org/2000/svg" width="512" height="512" viewBox="0 0 512 512" fill="none">
  <rect width="512" height="512" rx="112" fill="#111111"/>
  <g fill="#F4F1EA">
    <rect x="116" y="116" width="44" height="280" rx="22"/>
    <rect x="116" y="116" width="196" height="44" rx="22"/>
    <rect x="116" y="236" width="140" height="40" rx="20"/>
    <path d="M314 132C371.438 132 418 178.562 418 236C418 293.438 371.438 340 314 340C256.562 340 210 293.438 210 236C210 178.562 256.562 132 314 132ZM314 170C277.549 170 248 199.549 248 236C248 272.451 277.549 302 314 302C350.451 302 380 272.451 380 236C380 199.549 350.451 170 314 170Z"/>
    <rect x="116" y="360" width="280" height="36" rx="18"/>
  </g>
</svg>
