<svg xmlns="http://www.w3.org/2000/svg" width="512" height="512" viewBox="0 0 512 512" fill="none">
  <defs>
    <linearGradient id="lg-bg" x1="80" y1="72" x2="432" y2="440" gradientUnits="userSpaceOnUse">
      <stop offset="0" stop-color="#07121D"/>
      <stop offset="1" stop-color="#112B3D"/>
    </linearGradient>
    <linearGradient id="lg-edge" x1="124" y1="96" x2="396" y2="412" gradientUnits="userSpaceOnUse">
      <stop offset="0" stop-color="#B5FFF4"/>
      <stop offset="0.44" stop-color="#50E4C4"/>
      <stop offset="1" stop-color="#00A8C4"/>
    </linearGradient>
    <linearGradient id="lg-core" x1="152" y1="146" x2="356" y2="354" gradientUnits="userSpaceOnUse">
      <stop offset="0" stop-color="#EFFFFB"/>
      <stop offset="0.48" stop-color="#A6F3E8"/>
      <stop offset="1" stop-color="#44D1C8"/>
    </linearGradient>
    <filter id="lg-glow" x="-20%" y="-20%" width="140%" height="140%">
      <feGaussianBlur stdDeviation="16" result="blur"/>
      <feColorMatrix in="blur" type="matrix" values="1 0 0 0 0.16 0 1 0 0 0.92 0 0 1 0 0.84 0 0 0 0.24 0"/>
    </filter>
  </defs>

  <rect x="56" y="56" width="400" height="400" rx="104" fill="url(#lg-bg)"/>
  <rect x="56" y="56" width="400" height="400" rx="104" stroke="url(#lg-edge)" stroke-width="8"/>

  <rect x="132" y="132" width="248" height="248" rx="64" fill="#0D1F2D" stroke="rgba(181,255,244,0.12)" stroke-width="4"/>
  <g opacity="0.2">
    <path d="M188 156V356" stroke="#82F0D8" stroke-width="8" stroke-linecap="round"/>
    <path d="M256 156V356" stroke="#82F0D8" stroke-width="8" stroke-linecap="round"/>
    <path d="M324 156V356" stroke="#82F0D8" stroke-width="8" stroke-linecap="round"/>
    <path d="M156 188H356" stroke="#82F0D8" stroke-width="8" stroke-linecap="round"/>
    <path d="M156 256H356" stroke="#82F0D8" stroke-width="8" stroke-linecap="round"/>
    <path d="M156 324H356" stroke="#82F0D8" stroke-width="8" stroke-linecap="round"/>
  </g>

  <rect x="170" y="158" width="44" height="196" rx="22" fill="url(#lg-core)" filter="url(#lg-glow)"/>
  <rect x="170" y="158" width="136" height="38" rx="19" fill="url(#lg-core)"/>
  <rect x="170" y="236" width="108" height="34" rx="17" fill="url(#lg-core)"/>

  <path d="M282 162H342C353.046 162 362 170.954 362 182V330C362 341.046 353.046 350 342 350H282V316H326V196H282V162Z" fill="#19374C" opacity="0.88"/>
  <path d="M262 162H336C350.359 162 362 173.641 362 188V324C362 338.359 350.359 350 336 350H262V312H320V200H262V162Z" fill="url(#lg-edge)"/>
</svg>
