<svg xmlns="http://www.w3.org/2000/svg" width="512" height="512" viewBox="0 0 512 512" fill="none">
  <rect width="512" height="512" rx="112" fill="#F5F2EB"/>
  <g fill="#111111">
    <rect x="116" y="120" width="42" height="272" rx="21"/>
    <rect x="116" y="120" width="174" height="42" rx="21"/>
    <rect x="116" y="236" width="132" height="38" rx="19"/>
    <path d="M314 129C374.199 129 423 177.801 423 238C423 298.199 374.199 347 314 347C253.801 347 205 298.199 205 238C205 177.801 253.801 129 314 129ZM314 168C275.34 168 244 199.34 244 238C244 276.66 275.34 308 314 308C352.66 308 384 276.66 384 238C384 199.34 352.66 168 314 168Z"/>
    <rect x="116" y="360" width="292" height="32" rx="16"/>
  </g>
</svg>
