<svg xmlns="http://www.w3.org/2000/svg" width="720" height="220" viewBox="0 0 720 220" fill="none">
  <rect width="720" height="220" rx="32" fill="#F4F1EA"/>
  <g fill="#101010">
    <path d="M82 61H177V86H110V121H167V145H110V184H82V61Z"/>
    <path d="M242 79C277.346 79 306 107.654 306 143C306 178.346 277.346 207 242 207C206.654 207 178 178.346 178 143C178 107.654 206.654 79 242 79ZM242 104C220.461 104 203 121.461 203 143C203 164.539 220.461 182 242 182C263.539 182 281 164.539 281 143C281 121.461 263.539 104 242 104Z"/>
  </g>
  <g fill="#101010">
    <path d="M345 69H381V151C381 174.748 396.252 187 420 187C443.748 187 459 174.748 459 151V69H495V153C495 194.421 467.421 215 420 215C372.579 215 345 194.421 345 153V69Z"/>
    <path d="M529 69H563L640 171V69H673V210H641L562 105V210H529V69Z"/>
  </g>
</svg>
