<svg xmlns="http://www.w3.org/2000/svg" width="512" height="512" viewBox="0 0 512 512" fill="none">
  <defs>
    <linearGradient id="bg" x1="84" y1="72" x2="428" y2="436" gradientUnits="userSpaceOnUse">
      <stop offset="0" stop-color="#08111C"/>
      <stop offset="1" stop-color="#102237"/>
    </linearGradient>
    <linearGradient id="edge" x1="118" y1="98" x2="394" y2="412" gradientUnits="userSpaceOnUse">
      <stop offset="0" stop-color="#79F0FF"/>
      <stop offset="0.5" stop-color="#39C1FF"/>
      <stop offset="1" stop-color="#1B87FF"/>
    </linearGradient>
    <linearGradient id="fill" x1="160" y1="150" x2="314" y2="322" gradientUnits="userSpaceOnUse">
      <stop offset="0" stop-color="#E7FBFF"/>
      <stop offset="0.56" stop-color="#93EAFF"/>
      <stop offset="1" stop-color="#4FC4FF"/>
    </linearGradient>
    <filter id="glow" x="-20%" y="-20%" width="140%" height="140%">
      <feGaussianBlur stdDeviation="16" result="blur"/>
      <feColorMatrix in="blur" type="matrix" values="1 0 0 0 0.08 0 1 0 0 0.76 0 0 1 0 1 0 0 0 0.3 0"/>
    </filter>
  </defs>

  <rect x="56" y="56" width="400" height="400" rx="110" fill="url(#bg)"/>
  <rect x="56" y="56" width="400" height="400" rx="110" stroke="url(#edge)" stroke-width="8"/>

  <rect x="112" y="112" width="288" height="288" rx="84" stroke="rgba(121, 240, 255, 0.12)" stroke-width="4"/>

  <g filter="url(#glow)">
    <rect x="162" y="142" width="46" height="228" rx="23" fill="url(#fill)"/>
    <rect x="162" y="142" width="158" height="40" rx="20" fill="url(#fill)"/>
    <rect x="162" y="240" width="122" height="36" rx="18" fill="url(#fill)"/>
  </g>

  <path d="M316 152H350C361.046 152 370 160.954 370 172V340C370 351.046 361.046 360 350 360H316V328H336V184H316V152Z" fill="url(#edge)" opacity="0.94"/>
  <path d="M288 192H338V224H320V328H288V192Z" fill="#0A1B2E" opacity="0.46"/>
  <path d="M322 244L366 244" stroke="#67E5FF" stroke-width="10" stroke-linecap="round" opacity="0.38"/>
</svg>
